<svg width="1707" height="1707" viewBox="0 0 1707 1707" fill="none" xmlns="http://www.w3.org/2000/svg">
<g clip-path="url(#clip0_145_40)">
<mask id="mask0_145_40" style="mask-type:alpha" maskUnits="userSpaceOnUse" x="0" y="0" width="1708" height="1708">
<circle cx="854" cy="854" r="854" fill="#3323EA"/>
</mask>
<g mask="url(#mask0_145_40)">
<circle cx="854" cy="854" r="854" fill="#3323EA"/>
<path d="M393.537 509.584H512.214V1026.53C512.214 1061.4 505.844 1090.23 493.105 1113.02C481.036 1135.82 465.615 1153.92 446.841 1167.33C428.738 1180.74 408.623 1190.13 386.497 1195.49C365.042 1200.86 344.592 1203.54 325.147 1203.54C304.362 1203.54 282.907 1200.52 260.78 1194.49C239.325 1189.13 219.881 1179.74 202.448 1166.33C185.015 1152.25 170.6 1133.14 159.201 1109C147.803 1084.19 142.104 1053.35 142.104 1016.47C142.104 993.677 143.445 972.222 146.127 952.107C149.479 931.992 151.491 915.23 152.161 901.82H256.757V1022.51C256.757 1043.96 262.121 1060.73 272.849 1072.8C283.577 1084.86 300.675 1090.9 324.142 1090.9C348.95 1090.9 366.718 1085.2 377.446 1073.8C388.173 1061.73 393.537 1047.99 393.537 1032.57V509.584Z" fill="#FF2AED"/>
<path d="M1076.55 1193.48V509.584H1355.14C1395.37 509.584 1429.56 514.277 1457.73 523.664C1486.56 533.051 1509.69 546.126 1527.12 562.888C1545.22 578.98 1558.3 598.089 1566.34 620.215C1574.39 641.67 1578.41 664.467 1578.41 688.605C1578.41 723.47 1571.04 753.307 1556.29 778.115C1541.54 802.253 1523.43 823.373 1501.98 841.476C1538.18 860.25 1562.32 884.052 1574.39 912.883C1587.13 941.044 1593.5 967.864 1593.5 993.342C1593.5 1051.67 1574.06 1099.61 1535.17 1137.16C1496.95 1174.71 1438.62 1193.48 1360.17 1193.48H1076.55ZM1356.15 623.232H1196.23V789.178H1353.13C1389.34 789.178 1415.82 782.473 1432.58 769.063C1449.34 755.654 1457.73 734.198 1457.73 704.696C1457.73 675.865 1448.67 655.08 1430.57 642.341C1413.14 629.602 1388.33 623.232 1356.15 623.232ZM1353.13 902.826H1196.23V1079.84H1376.26C1407.1 1079.84 1430.91 1072.46 1447.67 1057.71C1465.1 1042.96 1473.82 1021.5 1473.82 993.342C1473.82 963.17 1463.09 940.709 1441.63 925.958C1420.18 910.537 1390.68 902.826 1353.13 902.826Z" fill="#FF2AED"/>
<path d="M734.554 992.057V428.845H555.533V308.157H1034.26V428.845H855.242V992.057H734.554Z" fill="#FF2AED"/>
<rect x="588.914" y="1353.65" width="414.801" height="414.801" fill="#FF2AED"/>
</g>
</g>
<defs>
<clipPath id="clip0_145_40">
<rect width="1707" height="1707" fill="white"/>
</clipPath>
</defs>
</svg>
